<?xml version="1.0" encoding="UTF-8"?>
<!DOCTYPE svg PUBLIC "-//W3C//DTD SVG 1.1//EN" "http://www.w3.org/Graphics/SVG/1.1/DTD/svg11.dtd">
<svg version="1.1" xmlns="http://www.w3.org/2000/svg" xmlns:xlink="http://www.w3.org/1999/xlink" x="0" y="0" width="31.744" height="31.744" viewBox="0, 0, 512, 512">
  <g id="Layer_1">
    <path d="M437.5,386.6 L306.9,256 L437.5,125.4 C451.6,111.3 451.6,88.6 437.5,74.5 C423.4,60.4 400.7,60.4 386.6,74.5 L256,205.1 L125.4,74.5 C111.3,60.4 88.6,60.4 74.5,74.5 C60.4,88.6 60.4,111.3 74.5,125.4 L205.1,256 L74.5,386.6 C60.4,400.7 60.4,423.4 74.5,437.5 C88.6,451.6 111.3,451.6 125.4,437.5 L256,306.9 L386.6,437.5 C400.7,451.6 423.4,451.6 437.5,437.5 C451.5,423.4 451.5,400.6 437.5,386.6 z" fill="#FFFFFF"/>
  </g>
</svg>
